<svg xmlns="http://www.w3.org/2000/svg" viewBox="0 0 512 512" fill="none">
  <rect width="512" height="512" rx="80" fill="#1e40af"/>
  <path d="M256 128C220.7 128 192 156.7 192 192V224H160C142.3 224 128 238.3 128 256V384C128 401.7 142.3 416 160 416H352C369.7 416 384 401.7 384 384V256C384 238.3 369.7 224 352 224H320V192C320 156.7 291.3 128 256 128zM256 160C273.7 160 288 174.3 288 192V224H224V192C224 174.3 238.3 160 256 160z" fill="white"/>
  <path d="M256 320L280 344L256 368L232 344L256 320Z" fill="white"/>
</svg>

